#!OML:ASF E:/inclinewalkrobotboard/Project1/Captureday1/Session1/subject1.ASF
:FULLY-SPECIFIED
:DEGREES
326
root 0 0 0 -2.8488914164696704 -1.7487373555200134 -0.620567052580276
lowerback 11.49772207244819 -1.136142954307568 -1.187528785532502
upperback 0.06480725818275918 -1.5379259356719952 1.880962100769486
thorax -6.314765307041558 -0.7340823941109997 2.810294413681732
lowerneck -17.46775901147675 -1.9536084118489185 -0.7794391402531888
upperneck 15.253150124388783 -1.9786193605433449 -1.8501058844277705
head 7.616797143690883 -1.1803089487356968 -0.7424884525864293
rclavicle 5.832031894576246E-16 -1.6420938539911837E-15
rhumerus -31.877930020627957 -29.19231441295874 -80.90504039660846
rradius 17.27231780153619
rwrist 16.966414927542868
rhand -19.790778397422844 26.411177374985876
rfingers 7.125019999999986
rthumb 6.571012400332925 -3.6648866458789158
lclavicle 1.119152657975553E-15 -1.9403809040647336E-15
lhumerus -30.77369844598497 -3.3283884776758117 82.02102286586438
lradius 33.15011399741038
lwrist 10.445420634920064
lhand -28.441084891149 25.906554309480114
lfingers 7.125020000000013
lthumb -1.8376541846710701 55.91229638376154
rfemur -14.897763108278564 5.280780643072576 27.63997666644164
rtibia 40.523116764393464
rfoot -8.976518658914438 -7.252588076189458
rtoes 4.5329209640493575
lfemur -13.206559030725472 2.345700353262769 -18.55339560109995
ltibia 42.70936613028756
lfoot -0.40006046242794113 -8.433362887866604
ltoes -4.961623966985311
327
root 0 0 0 -2.9639521140333267 -2.802410102058257 -1.7075182601919796
lowerback 11.347000068448967 -0.8399190289577813 -0.08696616571157234
upperback 0.03902696883475748 -1.009988606607206 1.9791508681082965
thorax -6.271345328919729 -0.4982861730166561 2.231201305726398
lowerneck -16.767179258163527 -1.920639942203591 -0.364995332471641
upperneck 14.639816323982997 -1.9341240649667004 -1.947093924296049
head 7.225529496995321 -1.1575069533482778 -0.8263549619071642
rclavicle -3.155886606372104E-16 -8.902948211824286E-16
rhumerus -31.130715489679403 -28.35104053908793 -80.64469700739659
rradius 18.70471344794897
rwrist 17.08372146702368
rhand -19.834501511113743 26.517967320078284
rfingers 7.125019999999986
rthumb 6.5288542441842425 -3.5531581872158924
lclavicle 5.749040202917944E-16 -1.1971161464518503E-15
lhumerus -30.83131586417261 -3.021173711478637 82.2323909119525
lradius 32.58335527685615
lwrist 9.9127135229888
lhand -28.266785076207967 25.618190923774417
lfingers 7.125020000000013
lthumb -1.6656757665248332 55.61789826037264
rfemur -13.007287042929786 5.744385947034803 28.986697889715366
rtibia 39.87206955109099
rfoot -10.08181237786231 -7.091567975028466
rtoes 4.758008266256827
lfemur -16.310745434395713 3.3868109746380233 -17.479186586434245
ltibia 44.10914398686024
lfoot 0.6461028032269258 -8.770413744576752
ltoes -5.641820475700467
328
root 0 0 0 -2.9534921609853884 -3.5728790384723066 -2.8701971427352344
lowerback 11.3412353888109 -0.39261434997671263 1.2016888176427598
upperback 0.1224799455036984 -0.25580153940369255 2.0793799275976452
thorax -6.161367862042241 -0.15641916611218387 1.509784309416263
lowerneck -16.85370294771394 -2.1814100081214276 -0.5091044019253061
upperneck 14.394344232325343 -2.264833172867779 -1.8278693377521666
head 7.081389905941975 -1.3192160057252649 -0.8101493668800819
rclavicle -1.6556691742322637E-15 3.121851297671792E-16
rhumerus -30.110229088439468 -27.34073707787204 -80.26150142879098
rradius 21.388115227760657
rwrist 17.379511673571216
rhand -20.20256651037371 26.503695413148378
rfingers 7.125019999999987
rthumb 6.175378168139058 -3.5944854646304165
lclavicle -4.534121338981487E-16 -1.2315038264083822E-16
lhumerus -30.824997314957095 -2.635979879392716 82.4849150446298
lradius 31.766740733167133
lwrist 9.263913552445551
lhand -28.11675698849432 25.46152110477264
lfingers 7.125020000000013
lthumb -1.515932798788354 55.457665411963006
rfemur -11.257012560877058 6.1942946277981985 29.89985185738523
rtibia 38.04460941458903
rfoot -11.379330240656186 -7.026148285093726
rtoes 4.4694995493742455
lfemur -17.54146323691582 3.65161477469736 -16.988252204323228
ltibia 44.156937842581186
lfoot 0.5638480669092178 -8.464147586588407
ltoes -6.406932807725383
329
root 0 0 0 -2.5142780801720033 -4.367815968560363 -5.079310708129229
lowerback 10.99459692458476 0.549238341568747 3.3412623808652793
upperback -0.2620532428436108 1.2568099920152227 2.1477560187602025
thorax -6.33388425761191 0.5381143227956666 0.15460202725950956
lowerneck -17.25602018880371 -2.7785708861526643 -0.7959911797747116
upperneck 13.757896053748446 -3.1373784365087354 -1.314569295346322
head 6.935452841643215 -1.7142496408850207 -0.6951765942541306
rclavicle -2.7108176957746576E-15 1.241303200792623E-15
rhumerus -29.175251198069734 -26.223989224823313 -80.03599137129338
rradius 23.9491724989769
rwrist 17.57836771786019
rhand -20.63889043348206 26.727633581603016
rfingers 7.125019999999988
rthumb 5.7545907688629665 -3.4083311023301803
lclavicle -1.2688875843440606E-15 6.66962062002985E-16
lhumerus -30.978769847694373 -2.226342312290193 82.54272741392725
lradius 31.08279498635715
lwrist 8.782666610436818
lhand -28.025548728621498 25.518124805206266
lfingers 7.125020000000012
lthumb -1.4255272085386732 55.5149440743388
rfemur -9.715992722091958 6.515372916686612 30.35734404528924
rtibia 36.034628277693415
rfoot -12.395727776940287 -6.928935978560244
rtoes 4.062808111989207
lfemur -18.314798859502393 3.5717342131513217 -16.581172141547366
ltibia 43.69241467098699
lfoot 0.12465559980195273 -7.83579869472087
ltoes -7.373705145888351
